<svg width="80" height="26" viewBox="0 0 80 26" fill="none" xmlns="http://www.w3.org/2000/svg">
<g clip-path="url(#clip0_2796_1168)">
<g clip-path="url(#clip1_2796_1168)">
<g clip-path="url(#clip2_2796_1168)">
<path d="M9.92548 9.40411V12.0816H16.3078C16.121 13.576 15.6229 14.6656 14.8445 15.444C13.9105 16.378 12.4473 17.4054 9.92548 17.4054C6.00269 17.4054 2.9205 14.2298 2.9205 10.307C2.9205 6.38418 5.97156 3.17746 9.92548 3.17746C12.0425 3.17746 13.5992 4.01806 14.7511 5.07659L16.6191 3.20859C15.0313 1.68306 12.8831 0.5 9.92548 0.5C4.53943 0.5 -0.00602722 4.88979 -0.00602722 10.2758C-0.00602722 15.6619 4.53943 20.0517 9.92548 20.0517C12.852 20.0517 15.0313 19.0865 16.7437 17.312C18.5183 15.5374 19.0475 13.0778 19.0475 11.0542C19.0475 10.4315 19.0164 9.87111 18.8919 9.37298H9.92548V9.40411Z" fill="#4285F4"/>
<path d="M27.0488 7.22461C23.5618 7.22461 20.6976 9.87094 20.6976 13.5447C20.6976 17.1872 23.5307 19.8647 27.0488 19.8647C30.5668 19.8647 33.4 17.1872 33.4 13.5447C33.3688 9.87094 30.5357 7.22461 27.0488 7.22461ZM27.0488 17.374C25.1496 17.374 23.4996 15.7863 23.4996 13.5447C23.4996 11.2719 25.1496 9.71527 27.0488 9.71527C28.9479 9.71527 30.598 11.2719 30.598 13.5447C30.598 15.7863 28.9479 17.374 27.0488 17.374Z" fill="#E94235"/>
<path d="M58.0886 8.62561H57.9952C57.3726 7.87841 56.1895 7.22461 54.664 7.22461C51.5195 7.22461 48.7486 9.96434 48.7486 13.5447C48.7486 17.0939 51.4884 19.8647 54.664 19.8647C56.1895 19.8647 57.3726 19.1798 57.9952 18.4326H58.0886V19.3043C58.0886 21.7016 56.781 23.0092 54.7262 23.0092C53.045 23.0092 51.9865 21.795 51.5506 20.7676L49.1534 21.7638C49.8383 23.445 51.6752 25.4998 54.7574 25.4998C57.9952 25.4998 60.7661 23.6007 60.7661 18.9307V7.56708H58.1509V8.62561H58.0886ZM54.913 17.374C53.0139 17.374 51.5506 15.7551 51.5506 13.5447C51.5506 11.3031 53.0139 9.71527 54.913 9.71527C56.8122 9.71527 58.2754 11.3342 58.2754 13.5758C58.3065 15.7551 56.8122 17.374 54.913 17.374Z" fill="#4285F4"/>
<path d="M41.1833 7.22461C37.6963 7.22461 34.8321 9.87094 34.8321 13.5447C34.8321 17.1872 37.6652 19.8647 41.1833 19.8647C44.7013 19.8647 47.5344 17.1872 47.5344 13.5447C47.5033 9.87094 44.6702 7.22461 41.1833 7.22461ZM41.1833 17.374C39.2841 17.374 37.6341 15.7863 37.6341 13.5447C37.6341 11.2719 39.2841 9.71527 41.1833 9.71527C43.0824 9.71527 44.7324 11.2719 44.7324 13.5447C44.7324 15.7863 43.0824 17.374 41.1833 17.374Z" fill="#FABB05"/>
<path d="M62.9143 0.749023H65.654V19.8337H62.9143V0.749023Z" fill="#34A853"/>
<path d="M74.06 17.3742C72.659 17.3742 71.6627 16.7204 71.0089 15.475L79.446 11.9881L79.1658 11.272C78.6366 9.87105 77.0488 7.25586 73.7798 7.25586C70.5419 7.25586 67.8333 9.80879 67.8333 13.5759C67.8333 17.1251 70.5108 19.896 74.0911 19.896C76.9865 19.896 78.6677 18.1214 79.3526 17.094L77.2044 15.6618C76.4572 16.6581 75.461 17.3742 74.06 17.3742ZM73.8732 9.59085C74.994 9.59085 75.9591 10.1824 76.2704 10.9918L70.573 13.358C70.5419 10.6805 72.441 9.59085 73.8732 9.59085Z" fill="#E94235"/>
</g>
</g>
</g>
<defs>
<clipPath id="clip0_2796_1168">
<rect width="79.44" height="25" fill="white" transform="translate(0 0.5)"/>
</clipPath>
<clipPath id="clip1_2796_1168">
<rect width="79.44" height="25" fill="white" transform="translate(0 0.5)"/>
</clipPath>
<clipPath id="clip2_2796_1168">
<rect width="79.452" height="25" fill="white" transform="translate(-0.00602722 0.5)"/>
</clipPath>
</defs>
</svg>
