<svg width="298" height="30" viewBox="0 0 298 30" fill="none" xmlns="http://www.w3.org/2000/svg">
<path d="M19.52 0.589842H26V28.5898H19.52V0.589842ZM6.8 28.5898H0.32V0.589842H6.8V28.5898ZM20 17.1098H6.32V11.6298H20V17.1098ZM28.9447 28.5898L41.4247 0.589842H47.8247L60.3447 28.5898H53.5447L43.3047 3.86984H45.8647L35.5847 28.5898H28.9447ZM35.1847 22.5898L36.9047 17.6698H51.3047L53.0647 22.5898H35.1847ZM63.2497 28.5898V0.589842H75.3697C77.8764 0.589842 80.0364 1.00318 81.8497 1.82984C83.663 2.62984 85.063 3.78984 86.0497 5.30984C87.0364 6.82984 87.5297 8.64318 87.5297 10.7498C87.5297 12.8298 87.0364 14.6298 86.0497 16.1498C85.063 17.6432 83.663 18.7898 81.8497 19.5898C80.0364 20.3898 77.8764 20.7898 75.3697 20.7898H66.8497L69.7297 17.9498V28.5898H63.2497ZM81.0497 28.5898L74.0497 18.4298H80.9697L88.0497 28.5898H81.0497ZM69.7297 18.6698L66.8497 15.6298H75.0097C77.0097 15.6298 78.503 15.2032 79.4897 14.3498C80.4764 13.4698 80.9697 12.2698 80.9697 10.7498C80.9697 9.20318 80.4764 8.00318 79.4897 7.14984C78.503 6.29651 77.0097 5.86984 75.0097 5.86984H66.8497L69.7297 2.78984V18.6698ZM92.6638 28.5898V0.589842H104.784C107.29 0.589842 109.45 1.00318 111.264 1.82984C113.077 2.62984 114.477 3.78984 115.464 5.30984C116.45 6.82984 116.944 8.64318 116.944 10.7498C116.944 12.8298 116.45 14.6298 115.464 16.1498C114.477 17.6432 113.077 18.7898 111.264 19.5898C109.45 20.3898 107.29 20.7898 104.784 20.7898H96.2638L99.1438 17.9498V28.5898H92.6638ZM110.464 28.5898L103.464 18.4298H110.384L117.464 28.5898H110.464ZM99.1438 18.6698L96.2638 15.6298H104.424C106.424 15.6298 107.917 15.2032 108.904 14.3498C109.89 13.4698 110.384 12.2698 110.384 10.7498C110.384 9.20318 109.89 8.00318 108.904 7.14984C107.917 6.29651 106.424 5.86984 104.424 5.86984H96.2638L99.1438 2.78984V18.6698ZM122.078 28.5898V0.589842H128.558V28.5898H122.078ZM144.403 29.0698C142.163 29.0698 140.016 28.7765 137.963 28.1898C135.909 27.5765 134.256 26.7898 133.003 25.8298L135.203 20.9498C136.403 21.8032 137.816 22.5098 139.443 23.0698C141.096 23.6032 142.763 23.8698 144.443 23.8698C145.723 23.8698 146.749 23.7498 147.523 23.5098C148.323 23.2432 148.909 22.8832 149.283 22.4298C149.656 21.9765 149.843 21.4565 149.843 20.8698C149.843 20.1232 149.549 19.5365 148.963 19.1098C148.376 18.6565 147.603 18.2965 146.643 18.0298C145.683 17.7365 144.616 17.4698 143.443 17.2298C142.296 16.9632 141.136 16.6432 139.963 16.2698C138.816 15.8965 137.763 15.4165 136.803 14.8298C135.843 14.2432 135.056 13.4698 134.443 12.5098C133.856 11.5498 133.563 10.3232 133.563 8.82984C133.563 7.22984 133.989 5.77651 134.843 4.46984C135.723 3.13651 137.029 2.08318 138.763 1.30984C140.523 0.509843 142.723 0.109843 145.363 0.109843C147.123 0.109843 148.856 0.323176 150.563 0.749842C152.269 1.14984 153.776 1.76318 155.083 2.58984L153.083 7.50984C151.776 6.76318 150.469 6.21651 149.163 5.86984C147.856 5.49651 146.576 5.30984 145.323 5.30984C144.069 5.30984 143.043 5.45651 142.243 5.74984C141.443 6.04318 140.869 6.42984 140.523 6.90984C140.176 7.36318 140.003 7.89651 140.003 8.50984C140.003 9.22984 140.296 9.81651 140.883 10.2698C141.469 10.6965 142.243 11.0432 143.203 11.3098C144.163 11.5765 145.216 11.8432 146.363 12.1098C147.536 12.3765 148.696 12.6832 149.843 13.0298C151.016 13.3765 152.083 13.8432 153.043 14.4298C154.003 15.0165 154.776 15.7898 155.363 16.7498C155.976 17.7098 156.283 18.9232 156.283 20.3898C156.283 21.9632 155.843 23.4032 154.963 24.7098C154.083 26.0165 152.763 27.0698 151.003 27.8698C149.269 28.6698 147.069 29.0698 144.403 29.0698ZM175.879 22.4698C174.972 22.4698 174.132 22.2565 173.359 21.8298C172.612 21.3765 172.012 20.7765 171.559 20.0298C171.105 19.2565 170.879 18.3765 170.879 17.3898C170.879 16.4032 171.105 15.5365 171.559 14.7898C172.012 14.0432 172.612 13.4565 173.359 13.0298C174.132 12.5765 174.972 12.3498 175.879 12.3498C176.785 12.3498 177.612 12.5765 178.359 13.0298C179.132 13.4565 179.745 14.0432 180.199 14.7898C180.652 15.5365 180.879 16.4032 180.879 17.3898C180.879 18.3765 180.652 19.2565 180.199 20.0298C179.745 20.7765 179.132 21.3765 178.359 21.8298C177.612 22.2565 176.785 22.4698 175.879 22.4698ZM194.023 28.5898L206.503 0.589842H212.903L225.423 28.5898H218.623L208.383 3.86984H210.943L200.663 28.5898H194.023ZM200.263 22.5898L201.983 17.6698H216.383L218.143 22.5898H200.263ZM241.537 29.0698C239.324 29.0698 237.271 28.7098 235.377 27.9898C233.511 27.2698 231.884 26.2565 230.497 24.9498C229.137 23.6432 228.071 22.1098 227.297 20.3498C226.551 18.5898 226.177 16.6698 226.177 14.5898C226.177 12.5098 226.551 10.5898 227.297 8.82984C228.071 7.06984 229.151 5.53651 230.537 4.22984C231.924 2.92318 233.551 1.90984 235.417 1.18984C237.284 0.469843 239.311 0.109843 241.497 0.109843C243.711 0.109843 245.737 0.469843 247.577 1.18984C249.444 1.90984 251.057 2.92318 252.417 4.22984C253.804 5.53651 254.884 7.06984 255.657 8.82984C256.431 10.5632 256.817 12.4832 256.817 14.5898C256.817 16.6698 256.431 18.6032 255.657 20.3898C254.884 22.1498 253.804 23.6832 252.417 24.9898C251.057 26.2698 249.444 27.2698 247.577 27.9898C245.737 28.7098 243.724 29.0698 241.537 29.0698ZM241.497 23.5498C242.751 23.5498 243.897 23.3365 244.937 22.9098C246.004 22.4832 246.937 21.8698 247.737 21.0698C248.537 20.2698 249.151 19.3232 249.577 18.2298C250.031 17.1365 250.257 15.9232 250.257 14.5898C250.257 13.2565 250.031 12.0432 249.577 10.9498C249.151 9.85651 248.537 8.90984 247.737 8.10984C246.964 7.30984 246.044 6.69651 244.977 6.26984C243.911 5.84318 242.751 5.62984 241.497 5.62984C240.244 5.62984 239.084 5.84318 238.017 6.26984C236.977 6.69651 236.057 7.30984 235.257 8.10984C234.457 8.90984 233.831 9.85651 233.377 10.9498C232.951 12.0432 232.737 13.2565 232.737 14.5898C232.737 15.8965 232.951 17.1098 233.377 18.2298C233.831 19.3232 234.444 20.2698 235.217 21.0698C236.017 21.8698 236.951 22.4832 238.017 22.9098C239.084 23.3365 240.244 23.5498 241.497 23.5498ZM267.487 22.1898L267.127 14.7098L280.527 0.589842H287.727L275.647 13.5898L272.047 17.4298L267.487 22.1898ZM261.687 28.5898V0.589842H268.127V28.5898H261.687ZM280.847 28.5898L270.887 16.3898L275.127 11.7898L288.407 28.5898H280.847ZM291.297 28.5898V0.589842H297.777V28.5898H291.297Z" fill="#4A4A4A"/>
</svg>
