<svg width="298" height="30" viewBox="0 0 298 30" fill="none" xmlns="http://www.w3.org/2000/svg">
<path d="M19.52 0.999998H26V29H19.52V0.999998ZM6.8 29H0.32V0.999998H6.8V29ZM20 17.52H6.32V12.04H20V17.52ZM28.9447 29L41.4247 0.999998H47.8247L60.3447 29H53.5447L43.3047 4.28H45.8647L35.5847 29H28.9447ZM35.1847 23L36.9047 18.08H51.3047L53.0647 23H35.1847ZM63.2497 29V0.999998H75.3697C77.8764 0.999998 80.0364 1.41333 81.8497 2.24C83.663 3.04 85.063 4.2 86.0497 5.72C87.0364 7.24 87.5297 9.05333 87.5297 11.16C87.5297 13.24 87.0364 15.04 86.0497 16.56C85.063 18.0533 83.663 19.2 81.8497 20C80.0364 20.8 77.8764 21.2 75.3697 21.2H66.8497L69.7297 18.36V29H63.2497ZM81.0497 29L74.0497 18.84H80.9697L88.0497 29H81.0497ZM69.7297 19.08L66.8497 16.04H75.0097C77.0097 16.04 78.503 15.6133 79.4897 14.76C80.4764 13.88 80.9697 12.68 80.9697 11.16C80.9697 9.61333 80.4764 8.41333 79.4897 7.56C78.503 6.70667 77.0097 6.28 75.0097 6.28H66.8497L69.7297 3.2V19.08ZM92.6638 29V0.999998H104.784C107.29 0.999998 109.45 1.41333 111.264 2.24C113.077 3.04 114.477 4.2 115.464 5.72C116.45 7.24 116.944 9.05333 116.944 11.16C116.944 13.24 116.45 15.04 115.464 16.56C114.477 18.0533 113.077 19.2 111.264 20C109.45 20.8 107.29 21.2 104.784 21.2H96.2638L99.1438 18.36V29H92.6638ZM110.464 29L103.464 18.84H110.384L117.464 29H110.464ZM99.1438 19.08L96.2638 16.04H104.424C106.424 16.04 107.917 15.6133 108.904 14.76C109.89 13.88 110.384 12.68 110.384 11.16C110.384 9.61333 109.89 8.41333 108.904 7.56C107.917 6.70667 106.424 6.28 104.424 6.28H96.2638L99.1438 3.2V19.08ZM122.078 29V0.999998H128.558V29H122.078ZM144.403 29.48C142.163 29.48 140.016 29.1867 137.963 28.6C135.909 27.9867 134.256 27.2 133.003 26.24L135.203 21.36C136.403 22.2133 137.816 22.92 139.443 23.48C141.096 24.0133 142.763 24.28 144.443 24.28C145.723 24.28 146.749 24.16 147.523 23.92C148.323 23.6533 148.909 23.2933 149.283 22.84C149.656 22.3867 149.843 21.8667 149.843 21.28C149.843 20.5333 149.549 19.9467 148.963 19.52C148.376 19.0667 147.603 18.7067 146.643 18.44C145.683 18.1467 144.616 17.88 143.443 17.64C142.296 17.3733 141.136 17.0533 139.963 16.68C138.816 16.3067 137.763 15.8267 136.803 15.24C135.843 14.6533 135.056 13.88 134.443 12.92C133.856 11.96 133.563 10.7333 133.563 9.24C133.563 7.64 133.989 6.18667 134.843 4.88C135.723 3.54666 137.029 2.49333 138.763 1.72C140.523 0.919999 142.723 0.52 145.363 0.52C147.123 0.52 148.856 0.733332 150.563 1.16C152.269 1.56 153.776 2.17333 155.083 3L153.083 7.92C151.776 7.17333 150.469 6.62667 149.163 6.28C147.856 5.90667 146.576 5.72 145.323 5.72C144.069 5.72 143.043 5.86667 142.243 6.16C141.443 6.45333 140.869 6.84 140.523 7.32C140.176 7.77333 140.003 8.30667 140.003 8.92C140.003 9.64 140.296 10.2267 140.883 10.68C141.469 11.1067 142.243 11.4533 143.203 11.72C144.163 11.9867 145.216 12.2533 146.363 12.52C147.536 12.7867 148.696 13.0933 149.843 13.44C151.016 13.7867 152.083 14.2533 153.043 14.84C154.003 15.4267 154.776 16.2 155.363 17.16C155.976 18.12 156.283 19.3333 156.283 20.8C156.283 22.3733 155.843 23.8133 154.963 25.12C154.083 26.4267 152.763 27.48 151.003 28.28C149.269 29.08 147.069 29.48 144.403 29.48ZM175.879 22.88C174.972 22.88 174.132 22.6667 173.359 22.24C172.612 21.7867 172.012 21.1867 171.559 20.44C171.105 19.6667 170.879 18.7867 170.879 17.8C170.879 16.8133 171.105 15.9467 171.559 15.2C172.012 14.4533 172.612 13.8667 173.359 13.44C174.132 12.9867 174.972 12.76 175.879 12.76C176.785 12.76 177.612 12.9867 178.359 13.44C179.132 13.8667 179.745 14.4533 180.199 15.2C180.652 15.9467 180.879 16.8133 180.879 17.8C180.879 18.7867 180.652 19.6667 180.199 20.44C179.745 21.1867 179.132 21.7867 178.359 22.24C177.612 22.6667 176.785 22.88 175.879 22.88ZM194.023 29L206.503 0.999998H212.903L225.423 29H218.623L208.383 4.28H210.943L200.663 29H194.023ZM200.263 23L201.983 18.08H216.383L218.143 23H200.263ZM241.537 29.48C239.324 29.48 237.271 29.12 235.377 28.4C233.511 27.68 231.884 26.6667 230.497 25.36C229.137 24.0533 228.071 22.52 227.297 20.76C226.551 19 226.177 17.08 226.177 15C226.177 12.92 226.551 11 227.297 9.24C228.071 7.48 229.151 5.94667 230.537 4.64C231.924 3.33333 233.551 2.32 235.417 1.6C237.284 0.879999 239.311 0.52 241.497 0.52C243.711 0.52 245.737 0.879999 247.577 1.6C249.444 2.32 251.057 3.33333 252.417 4.64C253.804 5.94667 254.884 7.48 255.657 9.24C256.431 10.9733 256.817 12.8933 256.817 15C256.817 17.08 256.431 19.0133 255.657 20.8C254.884 22.56 253.804 24.0933 252.417 25.4C251.057 26.68 249.444 27.68 247.577 28.4C245.737 29.12 243.724 29.48 241.537 29.48ZM241.497 23.96C242.751 23.96 243.897 23.7467 244.937 23.32C246.004 22.8933 246.937 22.28 247.737 21.48C248.537 20.68 249.151 19.7333 249.577 18.64C250.031 17.5467 250.257 16.3333 250.257 15C250.257 13.6667 250.031 12.4533 249.577 11.36C249.151 10.2667 248.537 9.32 247.737 8.52C246.964 7.72 246.044 7.10666 244.977 6.68C243.911 6.25333 242.751 6.04 241.497 6.04C240.244 6.04 239.084 6.25333 238.017 6.68C236.977 7.10666 236.057 7.72 235.257 8.52C234.457 9.32 233.831 10.2667 233.377 11.36C232.951 12.4533 232.737 13.6667 232.737 15C232.737 16.3067 232.951 17.52 233.377 18.64C233.831 19.7333 234.444 20.68 235.217 21.48C236.017 22.28 236.951 22.8933 238.017 23.32C239.084 23.7467 240.244 23.96 241.497 23.96ZM267.487 22.6L267.127 15.12L280.527 0.999998H287.727L275.647 14L272.047 17.84L267.487 22.6ZM261.687 29V0.999998H268.127V29H261.687ZM280.847 29L270.887 16.8L275.127 12.2L288.407 29H280.847ZM291.297 29V0.999998H297.777V29H291.297Z" fill="white"/>
</svg>
