<svg width="16" height="9" viewBox="0 0 16 9" fill="none" xmlns="http://www.w3.org/2000/svg">
<path d="M8.50152 8.30477L15.8099 1.52716C15.9319 1.41407 16 1.26383 16 1.10759C16 0.951345 15.9319 0.801101 15.8099 0.688013L15.8017 0.680716C15.7425 0.625703 15.6713 0.581898 15.5924 0.551964C15.5135 0.52203 15.4285 0.506593 15.3427 0.506593C15.2568 0.506593 15.1718 0.52203 15.0929 0.551964C15.014 0.581898 14.9428 0.625703 14.8837 0.680715L8.0019 7.06308L1.12294 0.680714C1.06379 0.625702 0.9926 0.581896 0.91369 0.551962C0.83478 0.522029 0.749803 0.506592 0.663928 0.506592C0.578054 0.506592 0.493078 0.522028 0.414168 0.551962C0.335258 0.581896 0.264064 0.625701 0.204918 0.680714L0.196659 0.688012C0.0746526 0.8011 0.00659181 0.951344 0.0065918 1.10758C0.00659178 1.26382 0.0746526 1.41407 0.196659 1.52716L7.50504 8.30477C7.56931 8.36438 7.64661 8.41183 7.73226 8.44426C7.8179 8.47668 7.91011 8.4934 8.00328 8.4934C8.09645 8.4934 8.18866 8.47668 8.2743 8.44426C8.35994 8.41183 8.43724 8.36438 8.50152 8.30477Z" fill="#C1BFBB"/>
</svg>
