<svg width="20" height="20" viewBox="0 0 20 20" fill="none" xmlns="http://www.w3.org/2000/svg">
<mask id="mask0_2796_1228" style="mask-type:luminance" maskUnits="userSpaceOnUse" x="0" y="0" width="19" height="20">
<path d="M18.5417 8.33301H10V11.8747H14.9167C14.4583 14.1247 12.5417 15.4163 10 15.4163C7.00001 15.4163 4.58334 12.9997 4.58334 9.99967C4.58334 6.99967 7.00001 4.58301 10 4.58301C11.2917 4.58301 12.4583 5.04134 13.375 5.79134L16.0417 3.12467C14.4167 1.70801 12.3333 0.833008 10 0.833008C4.91668 0.833008 0.833344 4.91634 0.833344 9.99967C0.833344 15.083 4.91668 19.1663 10 19.1663C14.5833 19.1663 18.75 15.833 18.75 9.99967C18.75 9.45801 18.6667 8.87467 18.5417 8.33301Z" fill="white"/>
</mask>
<g mask="url(#mask0_2796_1228)">
<path d="M0 15.4163V4.58301L7.08333 9.99967L0 15.4163Z" fill="#FABB05"/>
</g>
<mask id="mask1_2796_1228" style="mask-type:luminance" maskUnits="userSpaceOnUse" x="0" y="0" width="19" height="20">
<path d="M18.5417 8.33301H10V11.8747H14.9167C14.4583 14.1247 12.5417 15.4163 10 15.4163C7.00001 15.4163 4.58334 12.9997 4.58334 9.99967C4.58334 6.99967 7.00001 4.58301 10 4.58301C11.2917 4.58301 12.4583 5.04134 13.375 5.79134L16.0417 3.12467C14.4167 1.70801 12.3333 0.833008 10 0.833008C4.91668 0.833008 0.833344 4.91634 0.833344 9.99967C0.833344 15.083 4.91668 19.1663 10 19.1663C14.5833 19.1663 18.75 15.833 18.75 9.99967C18.75 9.45801 18.6667 8.87467 18.5417 8.33301Z" fill="white"/>
</mask>
<g mask="url(#mask1_2796_1228)">
<path d="M0 4.58333L7.08333 10L10 7.45833L20 5.83333V0H0V4.58333Z" fill="#E94235"/>
</g>
<mask id="mask2_2796_1228" style="mask-type:luminance" maskUnits="userSpaceOnUse" x="0" y="0" width="19" height="20">
<path d="M18.5417 8.33301H10V11.8747H14.9167C14.4583 14.1247 12.5417 15.4163 10 15.4163C7.00001 15.4163 4.58334 12.9997 4.58334 9.99967C4.58334 6.99967 7.00001 4.58301 10 4.58301C11.2917 4.58301 12.4583 5.04134 13.375 5.79134L16.0417 3.12467C14.4167 1.70801 12.3333 0.833008 10 0.833008C4.91668 0.833008 0.833344 4.91634 0.833344 9.99967C0.833344 15.083 4.91668 19.1663 10 19.1663C14.5833 19.1663 18.75 15.833 18.75 9.99967C18.75 9.45801 18.6667 8.87467 18.5417 8.33301Z" fill="white"/>
</mask>
<g mask="url(#mask2_2796_1228)">
<path d="M0 15.4167L12.5 5.83333L15.7917 6.25L20 0V20H0V15.4167Z" fill="#34A853"/>
</g>
<mask id="mask3_2796_1228" style="mask-type:luminance" maskUnits="userSpaceOnUse" x="0" y="0" width="19" height="20">
<path d="M18.5417 8.33301H10V11.8747H14.9167C14.4583 14.1247 12.5417 15.4163 10 15.4163C7.00001 15.4163 4.58334 12.9997 4.58334 9.99967C4.58334 6.99967 7.00001 4.58301 10 4.58301C11.2917 4.58301 12.4583 5.04134 13.375 5.79134L16.0417 3.12467C14.4167 1.70801 12.3333 0.833008 10 0.833008C4.91668 0.833008 0.833344 4.91634 0.833344 9.99967C0.833344 15.083 4.91668 19.1663 10 19.1663C14.5833 19.1663 18.75 15.833 18.75 9.99967C18.75 9.45801 18.6667 8.87467 18.5417 8.33301Z" fill="white"/>
</mask>
<g mask="url(#mask3_2796_1228)">
<path d="M20 19.9997L7.08335 9.99967L5.41669 8.74967L20 4.58301V19.9997Z" fill="#4285F4"/>
</g>
</svg>
