<svg width="19" height="18" viewBox="0 0 19 18" fill="none" xmlns="http://www.w3.org/2000/svg">
<g clip-path="url(#clip0_2796_1180)">
<g clip-path="url(#clip1_2796_1180)">
<g clip-path="url(#clip2_2796_1180)">
<path fill-rule="evenodd" clip-rule="evenodd" d="M8.36818 1.18246C8.48825 0.811955 8.83361 0.561523 9.22241 0.561523C9.61121 0.561523 9.95541 0.811955 10.0755 1.18246L11.5815 5.82288C11.6261 5.95896 11.713 6.07788 11.8285 6.1625C11.9451 6.24713 12.0858 6.29288 12.2287 6.29288L17.1082 6.29058C17.497 6.29058 17.8412 6.54101 17.9613 6.91151C18.0813 7.28087 17.9498 7.6857 17.6353 7.91441L13.6879 10.7812C13.5712 10.8658 13.4843 10.9848 13.4397 11.1208C13.3951 11.2581 13.3963 11.4056 13.4397 11.5417L14.9492 16.181C15.0693 16.5515 14.9378 16.9563 14.6233 17.185C14.3088 17.4137 13.8823 17.4137 13.5678 17.185L9.62265 14.3159C9.50601 14.2312 9.36649 14.1855 9.22241 14.1855C9.07833 14.1855 8.93881 14.2312 8.82217 14.3159L4.87586 17.185C4.56139 17.4137 4.13597 17.4137 3.8215 17.185C3.50588 16.9563 3.37441 16.5515 3.49562 16.181L5.00394 11.5417C5.04854 11.4056 5.04854 11.2581 5.00394 11.1208C4.96048 10.9848 4.87357 10.8658 4.75693 10.7812L0.809476 7.91441C0.495005 7.6857 0.362343 7.28087 0.482414 6.91151C0.603628 6.54101 0.947841 6.29058 1.33664 6.29058L6.21492 6.29288C6.35901 6.29288 6.49967 6.24713 6.61517 6.1625C6.73181 6.07788 6.81872 5.95896 6.86217 5.82288L8.36818 1.18246Z" fill="#F6BB06"/>
</g>
</g>
</g>
<defs>
<clipPath id="clip0_2796_1180">
<rect width="18" height="18" fill="white" transform="translate(0.440002)"/>
</clipPath>
<clipPath id="clip1_2796_1180">
<rect width="18" height="18" fill="white" transform="translate(0.440002)"/>
</clipPath>
<clipPath id="clip2_2796_1180">
<rect width="18" height="16.875" fill="white" transform="translate(0.440002 0.5625)"/>
</clipPath>
</defs>
</svg>
