<svg width="15" height="16" viewBox="0 0 15 16" fill="none" xmlns="http://www.w3.org/2000/svg">
<g clip-path="url(#clip0_2796_1277)">
<g clip-path="url(#clip1_2796_1277)">
<path fill-rule="evenodd" clip-rule="evenodd" d="M6.83438 0.728906C6.99375 0.522656 7.2375 0.410156 7.5 0.410156C7.7625 0.410156 8.00625 0.532031 8.16563 0.728906L8.89688 1.67578C8.95313 1.75078 9.0375 1.80703 9.13125 1.82578C9.225 1.85391 9.31875 1.84453 9.4125 1.80703L10.5188 1.35703C10.7625 1.26328 11.025 1.28203 11.25 1.40391C11.475 1.53516 11.625 1.76016 11.6625 2.01328L11.8313 3.19453C11.8406 3.28828 11.8875 3.37266 11.9531 3.43828C12.0188 3.50391 12.1031 3.55078 12.1969 3.56016L13.3781 3.72891C13.6313 3.76641 13.8563 3.91641 13.9875 4.14141C14.1188 4.36641 14.1375 4.63828 14.0344 4.87266L13.5844 5.97891C13.5469 6.06328 13.5469 6.16641 13.5656 6.26016C13.5938 6.35391 13.6406 6.42891 13.7156 6.49453L14.6625 7.23516C14.8688 7.39453 14.9813 7.63828 14.9813 7.90078C14.9813 8.16328 14.8594 8.40703 14.6625 8.56641L13.7156 9.29766C13.6406 9.35391 13.5844 9.43828 13.5656 9.53203C13.5375 9.62578 13.5469 9.71953 13.5844 9.81328L14.0344 10.9195C14.1281 11.1633 14.1094 11.4258 13.9875 11.6508C13.8563 11.8758 13.6313 12.0258 13.3781 12.0633L12.1969 12.232C12.1031 12.2414 12.0188 12.2883 11.9531 12.3539C11.8875 12.4195 11.8406 12.5039 11.8313 12.5977L11.6625 13.7883C11.625 14.0414 11.475 14.2664 11.25 14.3977C11.025 14.5289 10.7531 14.5477 10.5188 14.4445L9.4125 13.9945C9.32813 13.957 9.225 13.957 9.13125 13.9758C9.0375 14.0039 8.9625 14.0508 8.89688 14.1258L8.16563 15.0727C8.00625 15.2789 7.7625 15.3914 7.5 15.3914C7.2375 15.3914 6.99375 15.2695 6.83438 15.0727L6.10313 14.1258C6.04688 14.0508 5.9625 13.9945 5.86875 13.9758C5.775 13.9477 5.68125 13.957 5.5875 13.9945L4.48125 14.4445C4.2375 14.5383 3.975 14.5195 3.75 14.3977C3.525 14.2664 3.375 14.0414 3.3375 13.7883L3.16875 12.5977C3.15938 12.5039 3.1125 12.4195 3.04688 12.3539C2.98125 12.2883 2.89688 12.2414 2.80313 12.232L1.62188 12.0633C1.36875 12.0258 1.14375 11.8758 1.0125 11.6508C0.881253 11.4258 0.862503 11.1539 0.965628 10.9195L1.41563 9.81328C1.45313 9.72891 1.45313 9.62578 1.43438 9.53203C1.40625 9.43828 1.35938 9.36328 1.28438 9.29766L0.337503 8.56641C0.131253 8.40703 0.0187531 8.16328 0.0187531 7.90078C0.0187531 7.63828 0.140628 7.39453 0.337503 7.23516L1.28438 6.49453C1.35938 6.43828 1.41563 6.35391 1.43438 6.26016C1.4625 6.16641 1.45313 6.07266 1.41563 5.97891L0.965628 4.87266C0.871878 4.62891 0.890628 4.36641 1.0125 4.14141C1.14375 3.91641 1.36875 3.76641 1.62188 3.72891L2.80313 3.56016C2.89688 3.55078 2.98125 3.50391 3.04688 3.43828C3.1125 3.37266 3.15938 3.28828 3.16875 3.19453L3.3375 2.01328C3.375 1.76016 3.525 1.53516 3.75 1.40391C3.975 1.27266 4.24688 1.25391 4.48125 1.35703L5.5875 1.80703C5.67188 1.84453 5.775 1.84453 5.86875 1.82578C5.9625 1.79766 6.0375 1.75078 6.10313 1.67578L6.83438 0.728906Z" fill="#4285F4"/>
<path fill-rule="evenodd" clip-rule="evenodd" d="M7.25625 7.95684L9.59062 5.61309C9.76875 5.43496 10.05 5.43496 10.2187 5.61309L10.8469 6.24121C11.025 6.41934 11.025 6.70059 10.8469 6.86934L7.73438 9.99121C7.73438 9.99121 7.71563 10.0193 7.70625 10.0287L7.07813 10.6568C6.99375 10.7412 6.87188 10.7881 6.75938 10.7881C6.64688 10.7881 6.53437 10.7412 6.44062 10.6568L5.8125 10.0287C5.8125 10.0287 5.79375 10.01 5.78438 9.99121L4.15313 8.35996C3.975 8.18184 3.975 7.90996 4.15313 7.73184L4.78125 7.10371C4.95938 6.92559 5.24063 6.92559 5.40938 7.10371L6.64688 8.34121L6.75938 8.45371L8.025 9.70059L7.25625 7.95684Z" fill="white"/>
</g>
</g>
<defs>
<clipPath id="clip0_2796_1277">
<rect width="15" height="15" fill="white" transform="translate(0 0.410156)"/>
</clipPath>
<clipPath id="clip1_2796_1277">
<rect width="15" height="15" fill="white" transform="translate(0 0.410156)"/>
</clipPath>
</defs>
</svg>
